<svg width="57" height="56" viewBox="0 0 57 56" fill="none" xmlns="http://www.w3.org/2000/svg">
	<rect x="4.66663" y="4" width="48" height="48" rx="24" fill="#E6F4D7" />
	<path d="M28.3333 17V39M33.3333 21H25.8333C24.905 21 24.0148 21.3687 23.3584 22.0251C22.702 22.6815 22.3333 23.5717 22.3333 24.5C22.3333 25.4283 22.702 26.3185 23.3584 26.9749C24.0148 27.6313 24.905 28 25.8333 28H30.8333C31.7615 28 32.6517 28.3687 33.3081 29.0251C33.9645 29.6815 34.3333 30.5717 34.3333 31.5C34.3333 32.4283 33.9645 33.3185 33.3081 33.9749C32.6517 34.6313 31.7615 35 30.8333 35H22.3333" stroke="#4CA30D" stroke-width="2" stroke-linecap="round" stroke-linejoin="round" />
	<rect x="4.66663" y="4" width="48" height="48" rx="24" stroke="#F5FBEE" stroke-width="8" />
</svg>