<svg width="4291" height="4292" viewBox="0 0 4291 4292" fill="none" xmlns="http://www.w3.org/2000/svg">
<path d="M2115.5 2.09277C2076.8 9.09277 2044.9 25.9927 2017.9 53.6929C2006.4 65.5928 2000.5 73.2925 1992.4 86.7925C1975.9 114.193 1968 143.693 1968 177.593C1968 218.993 1980.4 255.593 2005.2 287.193C2013.6 297.993 2030.2 313.993 2040.8 321.593C2048.3 327.093 2049 327.893 2049 330.993C2049 335.593 2095.7 1196.39 2096.5 1206.19L2097.1 1213.79L2085.8 1214.49C2047.8 1216.79 1998.2 1223.29 1962.2 1230.59C1955.8 1231.89 1950.4 1232.89 1950.4 1232.79C1950.3 1232.69 1909.2 1037.49 1859 798.893L1767.7 365.293L1774.4 356.893C1802 322.693 1815.4 281.793 1813.7 237.193C1812.7 211.493 1807.2 189.792 1796 166.593C1771.8 116.693 1727.1 82.1929 1671 69.8926C1661.8 67.9927 1657.6 67.6929 1637 67.5928C1616.4 67.5928 1612.1 67.8926 1602.2 69.8926C1555.7 79.2925 1516.5 104.993 1489.3 143.792C1482.1 154.093 1471 176.493 1467.1 188.792C1450.2 241.793 1457.7 297.493 1487.9 343.193C1500.7 362.493 1517.5 379.493 1536.8 392.393C1546.2 398.793 1566.2 408.993 1574.9 411.893C1577.9 412.893 1580.8 414.393 1581.2 415.193C1581.8 416.193 1850.4 1236.79 1856.4 1255.79C1857 1257.69 1856.3 1258.19 1848.8 1260.59C1817.7 1270.79 1773.9 1288.69 1741.8 1304.29C1730.3 1309.89 1720.8 1314.19 1720.7 1313.99C1720.5 1313.79 1635.1 1145.49 1531 940.093C1426.9 734.693 1336.8 556.893 1330.7 544.993L1319.6 523.393L1323.7 514.493C1341.7 475.493 1344.2 426.693 1330.4 385.093C1315.1 339.193 1282.6 302.193 1239 281.193C1209.9 267.193 1178.3 261.193 1147.3 263.893C1123.4 265.993 1105.1 270.993 1083.5 281.493C1033.2 305.793 999.2 349.793 986.8 406.293C984.8 415.393 984.6 419.393 984.6 441.093C984.6 462.893 984.8 466.793 986.8 476.093C992.2 500.793 1003.1 525.893 1016.8 545.093C1025.4 557.393 1045.9 577.793 1057.8 586.093C1081.1 602.393 1108.7 613.493 1135 617.193C1139.7 617.793 1145.5 618.593 1148 618.993L1152.4 619.593L1394.7 991.093C1528 1195.39 1637 1362.59 1637 1362.79C1637 1362.89 1631.5 1366.69 1624.8 1371.29C1593.3 1392.29 1555.2 1421.69 1528.9 1445.19L1520.4 1452.89L1237.4 1137.39C1081.8 963.793 948.5 815.193 941.2 806.993L927.9 792.193L929.5 783.393C930.3 778.593 931.3 768.293 931.6 760.593C933.6 712.593 916 666.093 882.8 631.593C866.7 614.793 853.4 604.793 835 595.593C810.3 583.193 788.4 577.493 761 576.393C718.3 574.693 678.5 587.293 645.1 613.093C566.4 673.893 553 787.293 615.1 865.693C617.8 869.093 625.2 876.793 631.5 882.893C666.1 916.193 712.9 933.893 760.5 931.693C768.2 931.293 778.1 930.393 782.5 929.693C788.8 928.593 790.8 928.593 792 929.593C792.8 930.193 941.7 1063.59 1122.8 1225.99L1452 1521.19L1442.2 1532.39C1416.8 1561.39 1387.3 1599.89 1368.5 1628.79C1365.2 1633.89 1362.2 1637.99 1361.9 1637.79C1361.6 1637.69 1194.3 1528.69 990.3 1395.59L619.2 1153.59L618.6 1146.59C615.5 1113.99 604.6 1084.49 586 1057.89C577.7 1045.99 557.3 1025.49 545 1016.89C525.8 1003.19 500.7 992.293 476 986.893C466.7 984.893 462.8 984.693 441 984.693C419.3 984.693 415.3 984.893 406.2 986.893C349.7 999.293 305.7 1033.29 281.4 1083.59C270.8 1105.39 265.8 1123.69 263.8 1147.79C261.9 1170.79 265 1196.09 272.4 1218.59C276.3 1230.29 286.2 1250.19 293.5 1261.09C319.2 1299.49 359.1 1326.09 406 1336.29C415.3 1338.29 419.2 1338.49 441 1338.49C462.7 1338.49 466.7 1338.29 476 1336.29C488.8 1333.49 507.7 1327.29 515.8 1323.19L521.7 1320.19L916.6 1520.39C1133.8 1630.49 1312 1720.99 1312.7 1721.39C1313.5 1721.89 1310.9 1728.19 1304 1742.39C1288.5 1774.19 1269.9 1819.69 1260.4 1849.29C1258.9 1854.19 1257.3 1858.09 1257 1857.99C1256.7 1857.99 1067.1 1795.99 835.5 1720.19L414.5 1582.49L412.2 1575.99C408.6 1565.89 398.7 1546.39 392.3 1536.89C347.8 1470.49 264 1442.19 187.5 1467.49C176.1 1471.29 155 1481.79 145 1488.59C105.7 1515.29 79.3 1555.19 69.8 1602.29C67.8 1612.19 67.5 1616.49 67.5 1637.09C67.6 1657.69 67.9 1661.89 69.8 1670.99C80.8 1721.19 109.4 1762.19 151.5 1788.09C168.4 1798.49 188.3 1806.19 209.9 1810.79C221.2 1813.19 224.7 1813.49 243.5 1813.49C265.7 1813.59 271.8 1812.89 289.5 1808.39C313.6 1802.19 337.3 1790.39 356 1775.09C362.1 1770.19 364.1 1769.09 366.5 1769.39C368.2 1769.59 563.7 1810.59 801.1 1860.59L1232.7 1951.39L1230.4 1962.69C1223.1 1998.59 1216.5 2049.29 1214.4 2086.39L1213.7 2098.19L1206.1 2097.59C1196.9 2096.89 335.5 2050.09 331.2 2050.09C328.6 2050.09 327.4 2048.99 321.9 2041.29C314 2030.39 298 2013.79 287.5 2005.59C265.5 1988.39 240.1 1976.59 212.5 1970.99C195.6 1967.59 166 1967.09 148.6 1970.09C111.1 1976.39 80.4 1991.89 53.6 2017.99C18 2052.69 0 2095.59 0 2145.59C0 2195.59 18.1 2238.69 53.6 2273.19C65.5 2284.69 73.2 2290.59 86.7 2298.69C114.1 2315.19 143.6 2323.09 177.5 2323.09C218.9 2323.09 255.5 2310.69 287.1 2285.89C297.9 2277.49 313.9 2260.89 321.5 2250.29C327 2242.79 327.8 2242.09 330.9 2242.09C335.4 2242.09 1196.3 2195.39 1206.1 2194.59L1213.7 2193.99L1214.4 2205.29C1216.7 2243.29 1223.2 2292.89 1230.5 2328.89C1231.8 2335.29 1232.8 2340.69 1232.7 2340.69C1232.6 2340.79 1037.4 2381.89 798.8 2432.09L365.2 2523.39L356.8 2516.69C336.9 2500.69 313.9 2489.09 289.5 2482.79C271.8 2478.29 265.7 2477.59 243.5 2477.69C224.7 2477.69 221.2 2477.99 209.9 2480.39C174.9 2487.79 146.6 2502.49 121.4 2526.39C95.7 2550.69 77.9 2583.09 69.8 2620.19C67.9 2629.29 67.6 2633.49 67.5 2654.09C67.5 2674.69 67.8 2678.99 69.8 2688.89C79.5 2736.89 106.5 2777.19 146.4 2803.49C156.9 2810.39 176.3 2819.89 187.5 2823.69C263.9 2849.09 347.8 2820.69 392.3 2754.29C398.7 2744.89 408.9 2724.89 411.8 2716.19C412.8 2713.19 414.3 2710.29 415.1 2709.89C416.1 2709.29 1237.1 2440.49 1255.7 2434.69C1257.6 2434.09 1258.1 2434.79 1260.5 2442.29C1270.7 2473.39 1288.6 2517.19 1304.2 2549.29C1309.8 2560.79 1314.1 2570.29 1313.9 2570.39C1313.7 2570.59 1145.4 2655.99 940 2760.09C734.6 2864.19 556.8 2954.29 544.9 2960.39L523.3 2971.49L514.4 2967.39C503.6 2962.39 489.8 2957.99 475.9 2954.89C466.7 2952.89 462.7 2952.69 441 2952.69C419.2 2952.69 415.3 2952.89 406 2954.89C359.1 2965.09 319.2 2991.69 293.5 3030.09C286.2 3040.99 276.3 3060.89 272.4 3072.59C241.2 3166.59 291.8 3267.89 385.3 3298.49C406.6 3305.49 413.6 3306.49 441 3306.49C462.8 3306.49 466.7 3306.29 476 3304.29C500.7 3298.89 525.8 3287.99 545 3274.29C557.3 3265.69 577.7 3245.19 586 3233.29C602.3 3209.99 613.4 3182.39 617.1 3156.09C617.7 3151.39 618.5 3145.59 618.9 3143.09L619.5 3138.69L991 2896.39C1195.3 2763.09 1362.5 2654.09 1362.7 2654.09C1362.8 2654.09 1366.6 2659.59 1371.2 2666.29C1392.2 2697.79 1421.6 2735.89 1445.1 2762.19L1452.8 2770.69L1137.3 3053.69C963.7 3209.29 815.1 3342.59 806.9 3349.89L792.1 3363.09L782.8 3361.59C728.3 3352.59 671.5 3369.89 632.2 3407.59C614.9 3424.19 604.7 3437.69 595.1 3456.99C586.6 3473.79 581.4 3489.79 577.9 3510.09C575.8 3521.69 576.1 3554.19 578.4 3567.09C592.3 3645.89 655.3 3705.39 734.2 3713.99C767.7 3717.69 800.5 3712.09 831 3697.49C851.6 3687.59 865.7 3677.39 882.2 3660.19C916.2 3624.99 933.7 3578.69 931.6 3530.09C931.2 3522.09 930.3 3512.19 929.6 3508.09C928.5 3502.09 928.4 3500.29 929.4 3499.09C930.1 3498.29 1063.5 3349.39 1225.9 3168.29L1521.1 2839.09L1532.3 2848.89C1561.3 2874.29 1599.8 2903.79 1628.7 2922.59C1633.8 2925.89 1637.9 2928.89 1637.7 2929.19C1637.6 2929.49 1528.6 3096.79 1395.5 3300.79L1153.5 3671.89L1146.5 3672.49C1113.9 3675.59 1084.4 3686.49 1057.8 3705.09C1045.9 3713.39 1025.4 3733.79 1016.8 3746.09C1003.1 3765.29 992.2 3790.39 986.8 3815.09C984.8 3824.39 984.6 3828.29 984.6 3850.09C984.6 3871.79 984.8 3875.79 986.8 3884.89C999.2 3941.39 1033.6 3985.79 1084 4009.99C1105.4 4020.29 1123.8 4025.29 1147.7 4027.29C1170.7 4029.19 1196 4026.09 1218.5 4018.69C1230.2 4014.79 1250.1 4004.89 1261 3997.59C1299.4 3971.79 1326.7 3930.89 1336 3885.09C1340.1 3864.69 1340.1 3835.49 1336 3815.09C1333.5 3802.69 1327.4 3783.69 1323.1 3775.29L1320.1 3769.39L1520.3 3374.49C1630.4 3157.29 1720.9 2979.09 1721.3 2978.39C1721.8 2977.59 1728.1 2980.19 1742.3 2987.09C1774.1 3002.59 1819.6 3021.19 1849.3 3030.69C1854.1 3032.19 1858 3033.79 1857.9 3034.09C1857.9 3034.39 1795.9 3223.99 1720.1 3455.59L1582.4 3876.59L1575.9 3878.89C1565.8 3882.49 1546.3 3892.39 1536.8 3898.79C1483.6 3934.49 1453.3 3997.39 1458.8 4060.79C1461 4085.29 1466.3 4104.19 1477.1 4125.89C1501.9 4176.09 1546.5 4209.99 1602.2 4221.29C1612.1 4223.29 1616.4 4223.59 1637 4223.59C1657.6 4223.49 1661.8 4223.19 1671 4221.29C1687.4 4217.69 1701.7 4212.59 1716.6 4205.09C1767.1 4179.69 1801.1 4133.79 1811.6 4076.99C1813.8 4064.79 1814.5 4040.49 1813 4026.99C1809.4 3993.69 1795.7 3960.69 1775.1 3935.09C1771.8 3930.99 1769 3927.09 1769 3926.59C1769 3925.99 1810 3730.49 1860.1 3491.99L1951.3 3058.39L1962.6 3060.69C1998.5 3067.99 2049.2 3074.59 2086.3 3076.69L2098.1 3077.39L2097.5 3084.99C2096.8 3094.29 2050 3955.49 2050 3959.79C2050 3962.49 2049 3963.59 2041.3 3969.19C2030.2 3977.19 2013.7 3993.09 2005.2 4003.99C1980.4 4035.59 1968 4072.19 1968 4113.59C1968 4163.59 1986.1 4206.69 2021.6 4241.19C2033.5 4252.69 2041.2 4258.59 2054.7 4266.69C2082.1 4283.19 2111.6 4291.09 2145.5 4291.09C2179.4 4291.09 2208.9 4283.19 2236.3 4266.69C2249.8 4258.59 2257.5 4252.69 2269.4 4241.19C2304.9 4206.69 2323 4163.59 2323 4113.59C2323 4072.19 2310.6 4035.59 2285.8 4003.99C2277.4 3993.19 2260.8 3977.19 2250.3 3969.59C2242.6 3964.09 2242 3963.39 2242 3960.09C2242 3955.49 2195.3 3094.79 2194.5 3084.99L2193.9 3077.39L2205.2 3076.69C2243.2 3074.39 2292.8 3067.89 2328.8 3060.59C2335.2 3059.29 2340.6 3058.29 2340.6 3058.39C2340.7 3058.49 2381.8 3253.69 2432 3492.29L2523.3 3925.89L2516.6 3934.29C2489 3968.49 2475.6 4009.39 2477.3 4053.99C2478.3 4079.69 2483.8 4101.39 2495 4124.59C2504.9 4144.99 2516.7 4161.09 2533 4176.29C2557.2 4198.79 2586.4 4213.89 2620 4221.29C2629.2 4223.19 2633.4 4223.49 2654 4223.59C2674.6 4223.59 2678.9 4223.29 2688.8 4221.29C2759.8 4206.89 2813.4 4154.19 2829 4083.59C2830.1 4078.59 2831.5 4068.19 2832.2 4060.39C2837.6 3997.09 2807.4 3934.49 2754.2 3898.79C2744.8 3892.39 2724.8 3882.19 2716.1 3879.29C2713.1 3878.29 2710.2 3876.79 2709.8 3875.99C2709.2 3874.99 2440.4 3053.99 2434.6 3035.39C2434 3033.49 2434.7 3032.99 2442.2 3030.59C2473.3 3020.39 2517.1 3002.49 2549.2 2986.89C2560.7 2981.29 2570.2 2976.99 2570.3 2977.19C2570.5 2977.39 2655.9 3145.69 2760 3351.09C2864.1 3556.49 2954.2 3734.29 2960.3 3746.19L2971.4 3767.79L2967.3 3776.69C2962.3 3787.49 2957.9 3801.29 2954.8 3815.19C2952.8 3824.39 2952.6 3828.39 2952.6 3850.09C2952.6 3871.89 2952.8 3875.79 2954.8 3885.09C2967 3941.09 3001.8 3985.79 3052 4009.99C3073.2 4020.19 3091.2 4025.09 3115.2 4027.29C3162.3 4031.49 3210.8 4015.39 3247.6 3983.19C3282 3953.19 3304.4 3907.39 3306.8 3862.09C3308.7 3827.39 3302.8 3798.39 3287.9 3769.09C3284.1 3761.69 3277.9 3751.29 3274.2 3746.09C3265.6 3733.79 3245.1 3713.39 3233.2 3705.09C3209.9 3688.79 3182.3 3677.69 3156 3673.99C3151.3 3673.39 3145.5 3672.59 3143 3672.19L3138.6 3671.59L2896.3 3300.09C2763 3095.79 2654 2928.49 2654 2928.39C2654 2928.29 2659.5 2924.49 2666.3 2919.89C2697.7 2898.89 2735.8 2869.49 2762 2845.99L2770.6 2838.29L3053.5 3153.79C3209.2 3327.39 3342.5 3475.99 3349.8 3484.09L3363 3498.99L3361.5 3508.29C3354.1 3552.99 3364.1 3598.49 3389.7 3637.09C3399.9 3652.49 3420.9 3673.59 3436 3683.79C3465.2 3703.49 3495.3 3713.39 3530 3714.79C3572.7 3716.49 3612.5 3703.89 3645.9 3678.09C3681.1 3650.89 3704.5 3611.99 3712.6 3567.59C3714.9 3555.19 3715.2 3521.59 3713.1 3510.09C3709.5 3489.59 3704.6 3474.29 3696.2 3457.59C3687.3 3439.69 3679.5 3428.69 3665 3413.69C3635.7 3383.29 3599.9 3365.59 3557.5 3360.49C3543 3358.69 3522.4 3359.19 3508.5 3361.49C3502.2 3362.59 3500.2 3362.59 3499 3361.59C3498.2 3360.99 3349.3 3227.59 3168.2 3065.19L2839 2769.99L2849.2 2758.29C2874.9 2728.99 2904.4 2690.39 2923.5 2660.79C2926.3 2656.59 2928.8 2653.19 2929.1 2653.39C2929.4 2653.49 3096.7 2762.49 3300.7 2895.59L3671.8 3137.59L3672.4 3144.59C3675.5 3177.19 3686.4 3206.69 3705 3233.29C3713.3 3245.19 3733.7 3265.69 3746 3274.29C3765.2 3287.99 3790.3 3298.89 3815 3304.29C3824.3 3306.29 3828.2 3306.49 3850 3306.49C3871.7 3306.49 3875.7 3306.29 3884.8 3304.29C3947.6 3290.59 3995.1 3249.59 4017.3 3190.09C4025.6 3167.79 4029.3 3139.49 4027.2 3115.29C4025 3091.29 4020.1 3073.29 4009.9 3052.09C3985.7 3001.89 3941 2967.09 3885 2954.89C3875.7 2952.89 3871.8 2952.69 3850 2952.69C3828.3 2952.69 3824.3 2952.89 3815 2954.89C3802.2 2957.69 3783.3 2963.89 3775.2 2967.99L3769.3 2970.99L3374.4 2770.79C3157.2 2660.69 2979 2570.19 2978.3 2569.79C2977.5 2569.29 2980.1 2562.99 2987 2548.79C3002.5 2516.99 3021.1 2471.49 3030.6 2441.79C3032.1 2436.99 3033.7 2433.09 3034 2433.19C3034.3 2433.19 3224 2495.19 3455.5 2570.99L3876.5 2708.69L3878.8 2715.19C3882.4 2725.29 3892.3 2744.79 3898.7 2754.29C3943.2 2820.69 4027 2848.99 4103.5 2823.69C4114.9 2819.89 4136 2809.39 4146 2802.59C4185.3 2775.89 4211.7 2735.99 4221.2 2688.89C4223.2 2678.99 4223.5 2674.69 4223.5 2654.09C4223.4 2633.49 4223.1 2629.29 4221.2 2620.19C4210.2 2569.99 4181.6 2528.99 4139.5 2503.09C4122.6 2492.69 4102.7 2484.99 4081.1 2480.39C4069.8 2477.99 4066.3 2477.69 4047.5 2477.69C4025.3 2477.59 4019.2 2478.29 4001.5 2482.79C3977.4 2488.99 3953.7 2500.79 3935 2516.09C3928.9 2520.99 3926.9 2522.09 3924.5 2521.79C3922.9 2521.59 3727.3 2480.59 3489.9 2430.59L3058.3 2339.79L3060.6 2328.49C3067.9 2292.59 3074.5 2241.89 3076.6 2204.79L3077.3 2192.99L3084.9 2193.59C3094.1 2194.29 3955.4 2241.09 3959.7 2241.09C3962.4 2241.09 3963.5 2242.19 3969.1 2249.79C3977.1 2260.89 3993 2277.39 4003.9 2285.89C4035.5 2310.69 4072.1 2323.09 4113.5 2323.09C4163.5 2323.09 4206.6 2304.99 4241.1 2269.49C4252.6 2257.59 4258.5 2249.89 4266.6 2236.39C4283.1 2208.99 4291 2179.49 4291 2145.59C4291 2095.59 4272.9 2052.49 4237.4 2017.99C4216.9 1998.19 4196.3 1985.59 4169.9 1976.79C4152 1970.79 4140.1 1968.79 4117.5 1968.29C4100.2 1967.99 4095.8 1968.19 4084.6 1970.09C4054.1 1975.19 4028.1 1986.49 4004.4 2004.89C3993.3 2013.49 3977.3 2029.99 3969.5 2040.79C3964.1 2048.39 3963.2 2049.09 3960.2 2049.09C3955.7 2049.09 3094.6 2095.79 3084.9 2096.59L3077.3 2097.19L3076.6 2085.89C3074.3 2047.89 3067.8 1998.29 3060.5 1962.29C3059.2 1955.89 3058.2 1950.49 3058.3 1950.49C3058.4 1950.39 3253.6 1909.29 3492.2 1859.09L3925.8 1767.79L3934.2 1774.49C3954.1 1790.49 3977.1 1802.09 4001.5 1808.39C4019.2 1812.89 4025.3 1813.59 4047.5 1813.49C4066.3 1813.49 4069.8 1813.19 4081.1 1810.79C4116.1 1803.39 4144.4 1788.69 4169.6 1764.79C4195.3 1740.49 4213.1 1708.09 4221.2 1670.99C4223.1 1661.89 4223.4 1657.69 4223.5 1637.09C4223.5 1616.49 4223.2 1612.19 4221.2 1602.29C4211.7 1555.19 4185.3 1515.29 4146 1488.59C4136 1481.79 4114.9 1471.29 4103.5 1467.49C4027.1 1442.19 3943.2 1470.59 3898.7 1536.89C3892.3 1546.29 3882.1 1566.29 3879.2 1574.99C3878.2 1577.99 3876.7 1580.89 3875.9 1581.29C3874.9 1581.89 3053.4 1850.89 3035.3 1856.49C3033.4 1857.09 3032.9 1856.39 3030.5 1848.89C3020.3 1817.79 3002.4 1773.99 2986.8 1741.89C2981.2 1730.39 2976.9 1720.89 2977.1 1720.79C2977.3 1720.59 3145.6 1635.19 3351 1531.09C3556.4 1426.99 3734.2 1336.89 3746.1 1330.79L3767.7 1319.69L3776.6 1323.79C3787.4 1328.79 3801.2 1333.19 3815.1 1336.29C3824.3 1338.29 3828.3 1338.49 3850 1338.49C3871.8 1338.49 3875.7 1338.29 3885 1336.29C3931.9 1326.09 3971.8 1299.49 3997.5 1261.09C4004.8 1250.19 4014.7 1230.29 4018.6 1218.59C4049.8 1124.59 3999.2 1023.29 3905.7 992.693C3884.4 985.693 3877.4 984.693 3850 984.693C3828.2 984.693 3824.3 984.893 3815 986.893C3790.3 992.293 3765.2 1003.19 3746 1016.89C3733.7 1025.49 3713.3 1045.99 3705 1057.89C3688.7 1081.19 3677.6 1108.79 3673.9 1135.09C3673.3 1139.79 3672.5 1145.59 3672.1 1148.09L3671.5 1152.49L3300 1394.79C3095.7 1528.09 2928.5 1637.09 2928.3 1637.09C2928.2 1637.09 2924.4 1631.59 2919.8 1624.79C2898.8 1593.39 2869.4 1555.29 2845.9 1529.09L2838.2 1520.49L3153.7 1237.59C3327.3 1081.89 3475.9 948.593 3484.1 941.293L3498.9 928.093L3508.2 929.593C3563.4 938.593 3619.6 921.293 3659.5 882.893C3676.8 866.293 3686.3 853.593 3696.4 833.193C3709.8 806.493 3715.9 777.893 3714.7 747.093C3713.2 708.993 3701 674.893 3678 645.193C3634 588.393 3561.9 563.993 3491 582.093C3468.8 587.793 3444.7 599.893 3425.4 615.193C3422 617.893 3414.3 625.293 3408.2 631.593C3374.9 666.193 3357 714.093 3359.4 761.593C3359.8 768.693 3360.7 778.193 3361.4 782.593C3362.5 788.893 3362.5 790.893 3361.5 792.093C3360.9 792.893 3227.5 941.793 3065.1 1122.89L2769.9 1452.09L2758.7 1442.29C2729.7 1416.89 2691.2 1387.39 2662.3 1368.59C2657.2 1365.29 2653.1 1362.29 2653.3 1361.99C2653.4 1361.69 2762.4 1194.39 2895.5 990.393L3137.5 619.293L3144.5 618.693C3177.1 615.593 3206.6 604.693 3233.2 586.093C3245.1 577.793 3265.6 557.393 3274.2 545.093C3288 525.593 3299.2 499.893 3304 476.093C3308.1 455.793 3308.2 426.293 3304.1 406.293C3292.7 350.993 3257.8 305.793 3207.5 281.493C3185.9 270.993 3167.6 265.993 3143.8 263.893C3112.7 261.193 3081.1 267.193 3052 281.193C3001.7 305.393 2967 350.093 2954.8 406.093C2952.8 415.393 2952.6 419.293 2952.6 441.093C2952.6 462.793 2952.8 466.793 2954.8 476.093C2957.6 488.893 2963.8 507.793 2967.9 515.893L2970.9 521.793L2770.7 916.693C2660.6 1133.89 2570.1 1312.09 2569.7 1312.79C2569.2 1313.59 2562.9 1310.99 2548.7 1304.09C2516.9 1288.59 2471.4 1269.99 2441.8 1260.49C2436.9 1258.99 2433 1257.39 2433.1 1257.09C2433.1 1256.79 2495.1 1067.09 2570.9 835.593L2708.6 414.593L2715.1 412.293C2725.2 408.693 2744.7 398.793 2754.2 392.393C2807.4 356.693 2837.7 293.793 2832.2 230.393C2830 205.893 2824.7 186.993 2813.9 165.292C2789.1 115.093 2744.5 81.1929 2688.8 69.8926C2678.9 67.8926 2674.6 67.5928 2654 67.5928C2633.4 67.6929 2629.2 67.9927 2620 69.8926C2603.6 73.4927 2589.3 78.5928 2574.4 86.0928C2525.4 110.693 2491.8 154.893 2480.4 209.393C2477.2 224.893 2476.2 247.993 2478 264.193C2481.7 297.593 2495.4 330.693 2516 356.093C2520.9 362.193 2522 364.193 2521.7 366.593C2521.5 368.193 2480.5 563.793 2430.5 801.193L2339.7 1232.79L2328.4 1230.49C2292.5 1223.19 2241.8 1216.59 2204.7 1214.49L2192.9 1213.79L2193.5 1206.19C2194.2 1196.89 2241 335.893 2241 331.493C2241 328.693 2242 327.593 2249.8 321.993C2260.8 313.993 2277.3 298.093 2285.8 287.193C2310.6 255.593 2323 218.993 2323 177.593C2323 143.693 2315.1 114.193 2298.6 86.7925C2290.5 73.2925 2284.6 65.5928 2273.1 53.6929C2247.4 27.2925 2216.6 10.3926 2180.5 2.99268C2164.5 -0.20752 2131.3 -0.70752 2115.5 2.09277ZM2181 1537.89C2181 1538.39 2191.7 1539.09 2204.8 1539.39C2230.1 1540.09 2252.2 1541.69 2255.5 1543.09C2256.6 1543.59 2264.3 1544.69 2272.5 1545.69C2280.8 1546.59 2287.7 1547.69 2288 1548.09C2288.3 1548.39 2294.1 1549.49 2301 1550.49C2307.9 1551.49 2313.7 1552.69 2314 1552.99C2314.3 1553.39 2319.2 1554.59 2325 1555.49C2330.8 1556.49 2336 1557.69 2336.5 1558.09C2337.1 1558.49 2341.6 1559.59 2346.5 1560.59C2351.5 1561.59 2356 1562.79 2356.6 1563.19C2357.1 1563.69 2361.2 1564.79 2365.6 1565.69C2369.9 1566.69 2373.7 1567.79 2374 1568.09C2374.3 1568.49 2377.7 1569.59 2381.5 1570.59C2385.4 1571.59 2388.7 1572.79 2389 1573.09C2389.3 1573.49 2392.7 1574.59 2396.5 1575.59C2400.4 1576.69 2404 1577.99 2404.7 1578.69C2405.4 1579.29 2407.6 1580.19 2409.7 1580.59C2411.8 1580.89 2414.4 1581.79 2415.5 1582.49C2416.6 1583.19 2420 1584.59 2423 1585.59C2426 1586.59 2428.7 1587.69 2429 1587.99C2429.3 1588.29 2431.3 1589.19 2433.5 1589.89C2435.7 1590.59 2439.8 1592.29 2442.5 1593.59C2459.6 1601.69 2463.6 1603.59 2464.5 1603.59C2465.1 1603.59 2465.7 1603.79 2466 1604.09C2466.7 1604.79 2472.3 1607.79 2484 1613.79C2489.8 1616.79 2496.8 1620.49 2499.5 1622.09C2502.3 1623.69 2506 1625.69 2507.8 1626.59C2509.5 1627.39 2511 1628.59 2511 1629.09C2511 1629.69 2511.6 1630.09 2512.3 1630.09C2513.1 1630.09 2515.5 1631.39 2517.6 1632.89C2519.7 1634.49 2522.3 1635.99 2523.2 1636.39C2524.1 1636.69 2528 1639.29 2531.8 1641.99C2535.7 1644.79 2539.1 1647.09 2539.4 1647.09C2539.8 1647.09 2543 1649.29 2546.5 1652.09C2550 1654.79 2553.4 1657.09 2554 1657.09C2554.5 1657.09 2555.5 1657.99 2556.2 1659.09C2556.9 1660.19 2557.8 1661.09 2558.3 1661.09C2558.8 1661.09 2563 1664.39 2567.7 1668.29C2572.4 1672.29 2577 1676.09 2578.1 1676.69C2579.1 1677.29 2581.5 1679.39 2583.4 1681.39C2585.3 1683.39 2587.2 1685.09 2587.7 1685.09C2588.7 1685.09 2627 1723.29 2627 1724.39C2627 1724.89 2628.8 1726.89 2631 1728.99C2633.2 1730.99 2635 1733.49 2635 1734.39C2635 1735.29 2635.4 1736.09 2636 1736.09C2637 1736.09 2648.9 1749.79 2649.8 1752.09C2650.1 1752.89 2651.4 1754.49 2652.7 1755.69C2654 1756.89 2655 1758.19 2655 1758.49C2655 1758.89 2657 1761.79 2659.5 1764.99C2662 1768.09 2664 1771.19 2664 1771.79C2664 1772.39 2664.6 1773.09 2665.4 1773.39C2666.2 1773.69 2667.6 1775.59 2668.6 1777.69C2669.6 1779.69 2671.4 1782.49 2672.7 1783.89C2674 1785.29 2675 1786.99 2675 1787.69C2675 1788.49 2675.4 1789.09 2676 1789.09C2676.5 1789.09 2677.7 1790.59 2678.5 1792.29C2680.2 1795.99 2683.2 1801.29 2684 1802.09C2685 1803.09 2688.1 1808.69 2689.1 1811.29C2689.7 1812.89 2690.5 1814.09 2690.9 1814.09C2691.2 1814.09 2692.4 1816.09 2693.5 1818.59C2694.6 1821.09 2695.9 1823.09 2696.3 1823.09C2696.8 1823.09 2696.8 1823.49 2696.5 1824.09C2696.2 1824.59 2696.3 1825.09 2696.8 1825.09C2697.3 1825.09 2698.3 1826.89 2699 1829.09C2699.7 1831.29 2700.7 1833.09 2701.2 1833.09C2701.7 1833.09 2701.8 1833.49 2701.5 1834.09C2701.2 1834.59 2701.4 1835.09 2701.9 1835.09C2702.5 1835.09 2703 1835.69 2703 1836.29C2703 1836.99 2703.9 1838.69 2704.9 1839.99C2705.9 1841.39 2706.6 1843.09 2706.3 1843.79C2706 1844.49 2706.2 1845.09 2706.7 1845.09C2707.3 1845.09 2708.3 1846.89 2709 1849.09C2709.7 1851.29 2710.7 1853.09 2711.2 1853.09C2711.7 1853.09 2711.8 1853.49 2711.5 1854.09C2711.2 1854.59 2711.3 1855.09 2711.8 1855.09C2712.4 1855.09 2713.4 1857.09 2714.1 1859.59C2714.8 1862.09 2715.8 1864.09 2716.2 1864.09C2716.6 1864.09 2716.9 1864.39 2716.8 1864.79C2716.7 1865.29 2717.3 1866.89 2718.2 1868.59C2719 1870.19 2720.1 1873.09 2720.5 1874.79C2720.8 1876.59 2721.5 1878.09 2722 1878.09C2722.4 1878.09 2723.4 1880.29 2724.1 1883.09C2724.8 1885.79 2725.8 1888.09 2726.2 1888.09C2726.7 1888.09 2726.8 1888.49 2726.5 1889.09C2726.2 1889.59 2726.4 1890.09 2726.9 1890.09C2727.5 1890.09 2728 1890.69 2728 1891.49C2728 1893.39 2731.2 1903.49 2732 1904.09C2732.4 1904.39 2733.5 1907.69 2734.5 1911.59C2735.5 1915.39 2736.7 1918.79 2737.1 1919.09C2737.4 1919.39 2738.6 1922.99 2739.6 1927.09C2740.5 1931.19 2741.6 1934.79 2742 1935.09C2742.4 1935.39 2743.5 1939.89 2744.5 1945.09C2745.5 1950.29 2746.6 1954.79 2747 1955.09C2747.8 1955.69 2751 1973.59 2751 1977.29C2751 1978.79 2751.4 1980.09 2751.9 1980.29C2753.8 1980.99 2755 2011.79 2755 2056.99C2755 2100.79 2754 2122.79 2752.1 2124.09C2751.7 2124.39 2750.5 2128.89 2749.5 2134.09C2748.5 2139.29 2747.4 2143.79 2747 2144.09C2746.6 2144.39 2745.5 2147.89 2744.5 2151.79C2743.5 2155.79 2742.3 2159.09 2741.9 2159.09C2741.6 2159.09 2740.4 2161.99 2739.4 2165.59C2738.4 2169.19 2737.2 2172.09 2736.9 2172.09C2736.5 2172.09 2735.4 2174.29 2734.4 2177.09C2733.4 2179.79 2732.2 2182.09 2731.7 2182.09C2731.3 2182.09 2731.1 2182.49 2731.4 2182.99C2731.8 2183.49 2731.7 2184.09 2731.3 2184.29C2730.3 2184.69 2726.6 2192.29 2726.8 2193.29C2726.9 2193.79 2726.6 2194.09 2726 2194.09C2725.5 2194.09 2725 2194.69 2725 2195.39C2725 2196.09 2724.1 2197.69 2722.9 2198.89C2721.8 2200.09 2721.2 2201.59 2721.5 2202.09C2721.8 2202.69 2721.6 2203.09 2721 2203.09C2720.4 2203.09 2719.5 2204.19 2719 2205.59C2718.5 2206.99 2717.6 2208.09 2717 2208.09C2716.5 2208.09 2716.1 2208.49 2716.2 2208.89C2716.4 2209.39 2714.3 2212.69 2711.5 2216.19C2708.8 2219.69 2706.6 2222.89 2706.7 2223.29C2706.9 2223.59 2705.6 2225.09 2704 2226.39C2702.4 2227.79 2701.3 2229.09 2701.6 2229.29C2702.3 2230.09 2672 2259.09 2670.5 2259.09C2669.7 2259.09 2668.5 2259.99 2667.8 2261.09C2667.1 2262.19 2666.1 2263.09 2665.7 2263.09C2665.2 2263.09 2662.9 2264.49 2660.6 2266.09C2655.6 2269.69 2653.1 2271.09 2641.3 2276.99C2627.9 2283.69 2627.9 2283.69 2621.5 2285.49C2618.2 2286.49 2614.1 2287.89 2612.5 2288.59C2610.8 2289.39 2605.2 2290.49 2600 2291.09C2594.8 2291.69 2589.4 2292.79 2588.1 2293.39C2585 2294.89 2522.9 2294.79 2519.7 2293.29C2518.5 2292.79 2505.6 2291.49 2491 2290.59C2476.4 2289.59 2464.1 2288.49 2463.5 2288.09C2463 2287.69 2453.1 2286.59 2441.5 2285.59C2430 2284.59 2420 2283.39 2419.3 2282.89C2418.6 2282.39 2416.2 2282.09 2413.8 2282.19C2411.4 2282.39 2409 2282.19 2408.4 2281.89C2407.9 2281.49 2400 2280.69 2391 2280.09C2381.9 2279.39 2373.6 2278.49 2372.4 2277.89C2371.3 2277.39 2368.6 2277.09 2366.4 2277.29C2363.2 2277.49 2362.4 2277.99 2362.2 2279.79C2362 2281.09 2362.3 2282.09 2362.8 2282.09C2363.3 2282.09 2364.5 2286.89 2365.4 2292.79C2366.3 2298.79 2367.4 2304.29 2367.7 2305.09C2368 2305.89 2368.4 2307.49 2368.6 2308.59C2369.8 2316.59 2372.5 2328.69 2373.1 2328.89C2373.6 2329.09 2373.7 2330.59 2373.3 2332.19C2373 2333.89 2373.2 2335.09 2373.8 2335.09C2374.3 2335.09 2375.3 2338.49 2375.9 2342.69C2376.5 2346.89 2377.3 2350.79 2377.7 2351.49C2378.1 2352.09 2378.3 2353.39 2378.2 2354.39C2378 2355.39 2378.3 2356.79 2378.8 2357.39C2379.3 2358.09 2380.3 2362.29 2381 2366.79C2381.8 2371.39 2382.7 2375.09 2383 2375.09C2383.4 2375.09 2383.5 2376.19 2383.2 2377.59C2383 2378.99 2383.2 2380.09 2383.7 2380.09C2384.3 2380.09 2385.3 2384.09 2386.1 2389.09C2386.8 2393.99 2387.7 2398.09 2388.2 2398.09C2388.6 2398.09 2388.7 2398.79 2388.4 2399.59C2388 2400.39 2388.2 2401.69 2388.7 2402.39C2389.3 2402.99 2390.3 2407.09 2391 2411.29C2391.7 2415.59 2392.6 2419.09 2393 2419.09C2393.3 2419.09 2393.5 2420.39 2393.2 2422.09C2393 2423.69 2393.2 2425.09 2393.7 2425.09C2394.2 2425.09 2395.5 2429.89 2396.5 2435.79C2397.5 2441.79 2398.6 2446.99 2399.1 2447.59C2399.5 2448.09 2400.4 2452.29 2401.1 2456.79C2401.8 2461.39 2402.7 2465.09 2403 2465.09C2403.4 2465.09 2403.5 2466.29 2403.2 2467.69C2403 2469.09 2403.2 2470.59 2403.8 2470.99C2404.3 2471.29 2405.4 2476.69 2406.1 2482.79C2406.8 2488.99 2407.7 2494.09 2408 2494.09C2408.3 2494.09 2408.3 2496.39 2408.1 2499.19C2407.9 2502.79 2408.2 2504.59 2409.1 2505.19C2411.1 2506.39 2411.1 2565.79 2409.1 2566.99C2408.2 2567.59 2407.9 2569.29 2408.1 2572.49C2408.3 2574.99 2408.3 2577.09 2407.9 2577.09C2407.6 2577.09 2406.8 2580.99 2406.2 2585.69C2405.6 2590.39 2404.5 2594.89 2403.9 2595.69C2403.3 2596.49 2403 2597.69 2403.3 2598.49C2403.6 2599.19 2403.5 2600.19 2403.1 2600.69C2402.7 2601.19 2401.7 2604.19 2401 2607.29C2400.3 2610.49 2399.2 2613.09 2398.7 2613.09C2398.2 2613.09 2398 2613.99 2398.3 2615.09C2398.6 2616.19 2398.5 2617.09 2398.1 2617.09C2397.7 2617.09 2396.8 2619.39 2396.1 2622.09C2395.4 2624.89 2394.4 2627.09 2393.8 2627.09C2393.3 2627.09 2393.2 2627.49 2393.5 2628.09C2393.8 2628.59 2393.7 2629.09 2393.3 2629.09C2392.8 2629.09 2391.8 2631.09 2391.1 2633.59C2390.4 2636.09 2389.4 2638.09 2388.9 2638.09C2388.4 2638.09 2388.1 2638.39 2388.2 2638.79C2388.4 2639.99 2385.2 2646.69 2383.8 2648.29C2383.1 2648.99 2381.6 2651.29 2380.5 2653.29C2379.4 2655.39 2378.2 2657.09 2377.8 2657.09C2377.3 2657.09 2377 2657.79 2377 2658.59C2377 2659.39 2376.6 2660.09 2376 2660.09C2375.5 2660.09 2375 2660.79 2375 2661.59C2375 2662.39 2374.1 2663.59 2373 2664.29C2371.9 2664.99 2371 2665.99 2371 2666.49C2371 2668.29 2355.6 2684.99 2348.8 2690.59C2346.8 2692.19 2341.9 2696.19 2338.1 2699.39C2334.3 2702.49 2330.6 2705.09 2330.1 2705.09C2329.5 2705.09 2329 2705.59 2329 2706.09C2329 2706.69 2328.2 2707.39 2327.3 2707.79C2326.3 2708.09 2324.1 2709.39 2322.4 2710.69C2320.7 2711.89 2316.8 2714.29 2313.7 2715.99C2305.1 2720.59 2303.5 2721.49 2303 2722.19C2302.7 2722.49 2300.7 2723.39 2298.5 2724.09C2296.3 2724.79 2293.1 2726.19 2291.4 2727.19C2289.7 2728.29 2287.7 2729.09 2287 2729.09C2286.3 2729.09 2283.6 2730.19 2281 2731.49C2278.4 2732.79 2274.7 2734.19 2272.9 2734.59C2271 2734.99 2267.7 2736.09 2265.5 2737.09C2263.3 2737.99 2258.6 2739.39 2255 2740.09C2251.4 2740.79 2248.3 2741.69 2248 2742.09C2247.7 2742.49 2243.2 2743.59 2238 2744.49C2232.8 2745.49 2227.6 2746.69 2226.5 2747.09C2223.6 2748.39 2206 2749.99 2187.3 2750.79C2178.4 2751.09 2171 2751.79 2171 2752.29C2171 2752.69 2156.6 2753.09 2139 2753.09C2121.4 2753.09 2107 2752.69 2107 2752.29C2107 2751.79 2101.3 2751.09 2094.3 2750.79C2080.4 2750.19 2062.8 2748.09 2062 2747.09C2061.7 2746.69 2059.5 2746.09 2057 2745.79C2048.4 2744.69 2039.6 2742.99 2038.5 2742.19C2038 2741.79 2033.9 2740.59 2029.5 2739.59C2025.1 2738.59 2021.1 2737.49 2020.5 2737.09C2020 2736.69 2016.8 2735.59 2013.5 2734.59C2010.2 2733.69 2007.3 2732.59 2007 2732.19C2006.7 2731.89 2004.7 2730.99 2002.5 2730.29C2000.3 2729.59 1996.3 2727.89 1993.5 2726.59C1990.8 2725.29 1987.4 2723.79 1986 2723.09C1984.6 2722.49 1980.4 2720.19 1976.5 2718.09C1972.7 2715.89 1968.5 2713.69 1967.3 2713.09C1966 2712.59 1965 2711.69 1965 2711.09C1965 2710.59 1964.5 2710.09 1963.9 2710.09C1962.7 2710.09 1952.7 2703.09 1952.2 2701.89C1952 2701.39 1951.2 2701.09 1950.5 2701.09C1949.8 2701.09 1948 2699.69 1946.7 2698.09C1945.3 2696.39 1943.8 2695.09 1943.3 2695.09C1942.2 2695.09 1928 2680.79 1928 2679.79C1928 2679.29 1926.6 2677.79 1924.9 2676.39C1923.2 2674.89 1921.4 2672.79 1920.9 2671.69C1919.5 2668.29 1917.6 2665.69 1915.8 2664.29C1914.8 2663.59 1914 2662.29 1914 2661.49C1914 2660.69 1913.1 2659.29 1912 2658.39C1910.9 2657.39 1910 2656.29 1910 2655.79C1910 2655.29 1909.1 2653.59 1907.9 2651.99C1906.8 2650.39 1906.2 2649.09 1906.7 2649.09C1907.1 2649.09 1907.1 2648.69 1906.5 2648.29C1905.3 2647.39 1901.6 2639.89 1901.8 2638.79C1901.9 2638.39 1901.6 2638.09 1901.1 2638.09C1900.6 2638.09 1899.6 2636.09 1898.9 2633.59C1898.2 2631.09 1897.2 2629.09 1896.7 2629.09C1896.3 2629.09 1896.2 2628.59 1896.5 2628.09C1896.8 2627.59 1896.7 2627.09 1896.2 2627.09C1895.7 2627.09 1894.8 2624.59 1894.1 2621.59C1893.4 2618.59 1892.5 2615.89 1892 2615.59C1891.5 2615.29 1891.3 2614.39 1891.7 2613.59C1892 2612.79 1891.8 2612.09 1891.2 2612.09C1890.6 2612.09 1889.6 2608.89 1888.9 2605.09C1888.2 2601.29 1887.4 2598.09 1887 2598.09C1886.6 2598.09 1886.5 2596.89 1886.8 2595.49C1887 2594.09 1886.8 2592.59 1886.2 2592.19C1885.6 2591.79 1884.5 2586.19 1883.8 2579.79C1883.1 2573.39 1882.3 2568.09 1882 2568.09C1881.7 2568.09 1881.6 2564.29 1881.8 2559.59C1882 2553.99 1881.8 2551.09 1881.1 2551.09C1880.4 2551.09 1880 2546.79 1880 2538.59C1880 2530.29 1880.4 2526.09 1881.1 2526.09C1881.8 2526.09 1882 2523.29 1881.8 2518.09C1881.6 2513.69 1881.7 2510.09 1882 2510.09C1882.3 2510.09 1883.2 2503.69 1883.9 2495.79C1884.6 2487.99 1885.7 2481.29 1886.2 2480.99C1886.8 2480.59 1887.1 2478.89 1886.8 2477.19C1886.6 2475.49 1886.6 2474.09 1887 2474.09C1887.3 2474.09 1888.2 2469.49 1888.9 2463.79C1889.6 2458.19 1890.6 2453.09 1891 2452.59C1891.4 2451.99 1892.5 2446.39 1893.5 2440.09C1894.5 2433.79 1895.6 2428.09 1896 2427.59C1896.4 2426.99 1897.5 2421.49 1898.5 2415.29C1899.5 2409.19 1900.7 2404.09 1901.2 2404.09C1901.8 2404.09 1902 2402.69 1901.8 2401.09C1901.5 2399.39 1901.6 2398.09 1902 2398.09C1902.3 2398.09 1903.2 2393.99 1903.9 2389.09C1904.7 2384.09 1905.7 2380.09 1906.3 2380.09C1906.8 2380.09 1907 2378.69 1906.8 2377.09C1906.5 2375.39 1906.6 2374.09 1907 2374.09C1907.3 2374.09 1908.2 2370.39 1909 2365.79C1909.7 2361.29 1910.7 2357.09 1911.2 2356.39C1911.7 2355.79 1912 2354.69 1911.9 2353.89C1911.8 2353.19 1912 2351.89 1912.3 2351.09C1912.6 2350.29 1913.4 2346.19 1914 2342.09C1914.7 2337.99 1915.7 2333.99 1916.2 2333.39C1916.8 2332.69 1917 2331.19 1916.7 2330.09C1916.4 2328.99 1916.5 2328.09 1916.9 2328.09C1917.3 2328.09 1918.3 2324.19 1919 2319.29C1919.7 2314.49 1920.7 2310.09 1921.2 2309.39C1921.7 2308.69 1921.9 2307.29 1921.5 2306.09C1921.2 2304.99 1921.3 2304.09 1921.8 2304.09C1922.3 2304.09 1923.5 2299.09 1924.5 2293.09C1925.5 2286.99 1926.7 2282.09 1927.1 2282.09C1927.6 2282.09 1928 2281.39 1928 2280.59C1928 2279.39 1926.4 2279.09 1919.3 2279.09C1907 2279.09 1862.9 2282.09 1860.5 2283.09C1858.6 2283.89 1814.9 2287.19 1806.5 2287.09C1804.2 2287.09 1802 2287.49 1801.5 2287.99C1800.1 2289.19 1757.7 2291.09 1731.1 2291.09C1709.6 2291.09 1692.8 2289.89 1688.5 2288.09C1687.4 2287.59 1682.9 2286.49 1678.5 2285.59C1674.1 2284.69 1669.9 2283.79 1669.2 2283.59C1668.5 2283.29 1667.8 2283.29 1667.6 2283.39C1667.5 2283.49 1666.7 2283.09 1665.9 2282.49C1665.1 2281.89 1662.7 2280.79 1660.5 2280.09C1658.3 2279.39 1655.6 2278.29 1654.5 2277.59C1653.4 2276.99 1650.1 2275.59 1647.3 2274.69C1644.4 2273.69 1642 2272.59 1642 2272.29C1642 2271.89 1640 2270.69 1637.5 2269.59C1635 2268.49 1633 2267.29 1633 2266.89C1633 2266.39 1632.5 2266.09 1632 2266.09C1630.5 2266.09 1618 2257.89 1618 2256.89C1618 2256.49 1617.4 2256.09 1616.7 2256.09C1614.6 2256.09 1590 2233.69 1590 2231.89C1590 2231.39 1588.2 2229.49 1586 2227.49C1583.8 2225.49 1582 2223.39 1582 2222.79C1582 2222.29 1581.2 2221.19 1580.3 2220.49C1579.3 2219.79 1578.5 2218.89 1578.5 2218.39C1578.5 2217.99 1576.6 2215.09 1574.2 2211.99C1571.9 2208.89 1570 2205.89 1570 2205.29C1570 2204.59 1569.6 2204.09 1569 2204.09C1568.5 2204.09 1567.1 2201.79 1565.8 2199.09C1564.5 2196.29 1563.2 2194.09 1562.9 2194.09C1562.5 2194.09 1561.4 2191.79 1560.4 2189.09C1559.4 2186.29 1558.3 2184.09 1557.9 2184.09C1557.6 2184.09 1556.5 2181.99 1555.5 2179.29C1554.5 2176.69 1553.4 2174.39 1553 2174.09C1552.7 2173.79 1551.6 2170.99 1550.6 2167.79C1549.6 2164.69 1548.5 2162.09 1548.1 2162.09C1547.7 2162.09 1546.6 2158.69 1545.6 2154.59C1544.6 2150.49 1543.5 2147.09 1543.1 2147.09C1542.7 2147.09 1541.5 2142.69 1540.5 2137.29C1539.5 2131.99 1538.3 2127.39 1537.9 2127.09C1533.9 2124.19 1533.9 1983.99 1537.9 1981.09C1538.3 1980.79 1539.5 1975.59 1540.5 1969.59C1541.5 1963.49 1542.6 1958.09 1543 1957.59C1543.4 1956.99 1544.5 1952.69 1545.5 1947.79C1546.5 1942.99 1547.6 1939.09 1548 1939.09C1548.3 1939.09 1549.4 1934.99 1550.4 1930.09C1551.5 1925.09 1552.6 1921.09 1553 1921.09C1553.4 1921.09 1554.6 1917.79 1555.5 1913.79C1556.5 1909.89 1557.6 1906.39 1558 1906.09C1558.4 1905.79 1559.5 1902.89 1560.5 1899.59C1561.4 1896.29 1562.6 1893.09 1563.2 1892.39C1563.7 1891.69 1563.9 1890.69 1563.5 1890.09C1563.2 1889.59 1563.3 1889.09 1563.8 1889.09C1564.3 1889.09 1565.3 1887.09 1566 1884.59C1566.7 1882.09 1567.6 1880.09 1567.9 1880.09C1568.3 1880.09 1569.4 1877.39 1570.3 1874.09C1571.3 1870.79 1572.5 1868.09 1572.9 1868.09C1573.4 1868.09 1574.5 1865.59 1575.5 1862.59C1576.4 1859.59 1577.6 1856.79 1578.1 1856.49C1578.6 1856.19 1578.8 1855.49 1578.5 1854.99C1578.1 1854.49 1578.3 1854.09 1578.8 1854.09C1579.8 1854.09 1583.4 1846.29 1583.3 1844.29C1583.3 1843.69 1583.6 1843.09 1584 1843.09C1584.4 1843.09 1585.3 1841.29 1586 1839.09C1586.7 1836.89 1587.7 1835.09 1588.2 1835.09C1588.7 1835.09 1588.8 1834.59 1588.5 1834.09C1588.2 1833.49 1588.4 1833.09 1588.9 1833.09C1589.5 1833.09 1590 1832.59 1590 1831.99C1590 1831.39 1590.9 1829.59 1592.1 1827.99C1593.2 1826.39 1593.8 1825.09 1593.3 1825.09C1592.9 1825.09 1593 1824.69 1593.6 1824.29C1594.7 1823.69 1598.2 1816.59 1598.4 1814.79C1598.5 1814.39 1599 1813.69 1599.5 1813.29C1600.1 1812.89 1601.3 1810.99 1602.3 1809.09C1605.9 1802.29 1607.9 1798.79 1608.7 1798.19C1609.1 1797.89 1610.5 1795.49 1611.8 1792.79C1613.1 1790.19 1614.6 1788.09 1615.1 1788.09C1615.6 1788.09 1616 1787.59 1616 1786.99C1616 1786.39 1617.6 1783.69 1619.5 1781.09C1621.4 1778.49 1623 1775.79 1623 1775.19C1623 1774.59 1623.7 1773.79 1624.5 1773.49C1625.3 1773.09 1626 1772.39 1626 1771.69C1626 1771.09 1628 1767.99 1630.5 1764.89C1633 1761.69 1635 1758.69 1635 1758.19C1635 1757.69 1635.7 1757.09 1636.5 1756.69C1637.3 1756.39 1638 1755.69 1638 1755.09C1638 1753.89 1651.2 1737.99 1654.9 1734.69C1656 1733.59 1657 1732.29 1657 1731.59C1657 1730.99 1660 1727.69 1663.6 1724.29C1667.2 1720.89 1669.8 1718.09 1669.4 1718.09C1668.9 1718.09 1675.7 1710.89 1684.5 1702.09C1693.3 1693.29 1700.8 1686.09 1701.2 1686.09C1701.7 1686.09 1703.8 1684.29 1706 1681.99C1708.1 1679.79 1711.5 1676.69 1713.4 1675.29C1715.3 1673.79 1720.3 1669.79 1724.4 1666.29C1728.6 1662.89 1732.3 1660.09 1732.7 1660.09C1733.2 1660.09 1734.1 1659.19 1734.8 1658.09C1735.5 1656.99 1736.5 1656.09 1737.1 1656.09C1737.7 1656.09 1740.8 1654.09 1744 1651.59C1747.2 1649.09 1750.2 1647.09 1750.7 1647.09C1751.1 1647.09 1752.6 1646.19 1754 1644.99C1755.4 1643.89 1759 1641.39 1762 1639.39C1765 1637.39 1770.5 1633.79 1774.1 1631.39C1777.7 1629.09 1781 1627.09 1781.4 1627.09C1781.8 1627.09 1783.4 1626.29 1784.8 1625.19C1786.3 1624.19 1790.1 1621.89 1793.2 1620.29C1801.5 1615.79 1803.4 1614.69 1804 1614.09C1804.3 1613.79 1806.5 1612.69 1809 1611.59C1811.5 1610.49 1813.7 1609.39 1814 1609.09C1814.3 1608.79 1816.5 1607.69 1819 1606.59C1821.5 1605.49 1823.7 1604.29 1824 1603.99C1824.3 1603.59 1827 1602.29 1830 1601.09C1833 1599.89 1838 1597.79 1841 1596.39C1846.4 1593.89 1848 1593.19 1857 1589.19C1859.5 1588.19 1863.7 1586.49 1866.5 1585.59C1869.2 1584.69 1871.9 1583.59 1872.5 1583.09C1873 1582.69 1876.2 1581.59 1879.4 1580.69C1882.7 1579.89 1885.6 1578.79 1885.9 1578.29C1886.2 1577.89 1889.7 1576.59 1893.5 1575.59C1897.4 1574.59 1900.7 1573.49 1901 1573.09C1901.3 1572.69 1904.9 1571.59 1909 1570.59C1913.1 1569.59 1917 1568.39 1917.5 1567.99C1918.1 1567.59 1921.9 1566.49 1926 1565.49C1930.1 1564.59 1934 1563.49 1934.5 1563.09C1935.1 1562.69 1939.1 1561.59 1943.5 1560.69C1947.9 1559.69 1952.4 1558.59 1953.5 1558.09C1954.6 1557.59 1960 1556.49 1965.5 1555.49C1971 1554.59 1975.7 1553.49 1976 1553.09C1976.3 1552.69 1982.1 1551.49 1989 1550.59C1995.9 1549.59 2001.7 1548.49 2002 1548.09C2002.3 1547.69 2009.3 1546.69 2017.5 1545.69C2025.8 1544.79 2033.4 1543.59 2034.5 1543.09C2036.9 1541.99 2070.7 1539.09 2080.3 1539.09C2084.1 1539.09 2087 1538.69 2087 1538.09C2087 1537.39 2103.3 1537.09 2134 1537.09C2159.9 1537.09 2181 1537.49 2181 1537.89Z" fill="black"/>
</svg>
